<svg xmlns="http://www.w3.org/2000/svg" xmlns:xlink="http://www.w3.org/1999/xlink" width="684.072" height="571.104" viewBox="0 0 684.072 571.104">
  <defs>
    <style>
      .cls-1, .cls-3 {
        fill: #393939;
      }

      .cls-1, .cls-17, .cls-7 {
        opacity: 0.1;
      }

      .cls-2 {
        fill: none;
        stroke: #535461;
        stroke-miterlimit: 10;
        stroke-width: 2px;
      }

      .cls-4 {
        opacity: 0.25;
      }

      .cls-5 {
        fill: #b77b7f;
      }

      .cls-6 {
        fill: #dda2a6;
      }

      .cls-8 {
        fill: #acbd86;
      }

      .cls-9 {
        fill: #fff;
      }

      .cls-10 {
        fill: url(#linear-gradient);
      }

      .cls-11 {
        fill: #67647e;
      }

      .cls-12 {
        fill: #444053;
      }

      .cls-13 {
        fill: #efb7b9;
      }

      .cls-14 {
        fill: #28544b;
      }

      .cls-15 {
        fill: #a36468;
      }

      .cls-16 {
        fill: #ffa06f;
      }

      .cls-18 {
        fill: #ffd037;
      }

      .cls-19 {
        fill: #9d9cb5;
      }
    </style>
    <linearGradient id="linear-gradient" x1="0.5" y1="1" x2="0.5" gradientUnits="objectBoundingBox">
      <stop offset="0" stop-color="gray" stop-opacity="0.251"/>
      <stop offset="0.54" stop-color="gray" stop-opacity="0.122"/>
      <stop offset="1" stop-color="gray" stop-opacity="0.102"/>
    </linearGradient>
  </defs>
  <g id="undraw_blank_canvas_3rbb" transform="translate(0 0.003)">
    <path id="Path_531" data-name="Path 531" class="cls-1" d="M340.556,53.32c20-17.8,51.4-21.454,79.984-20.037,89.769,4.465,170.8,47.8,240.9,96.823,25.378,17.743,50.359,36.869,66.829,61.309,33.555,49.75,23.584,118.667-23.036,159.652-15.867,13.942-35.1,24.652-54.838,34.109-35.1,16.846-72.978,30.37-112.819,34.24-28.4,2.739-57.166.514-85.414-3.314-78.908-10.724-156.351-34.39-221.29-74.875-28.474-17.757-55.311-39.834-67.048-68.548s-4.225-65.144,24.851-82.175c12.025-7.033,26.406-10.21,40.478-13.2,20.722-4.389,41.772-8.717,60.467-17.64,19.318-9.217,42.183-27.042,38.348-47.449C323.882,90.353,320.581,71.124,340.556,53.32Z" transform="translate(-118.801 -33.01)"/>
    <path id="Path_532" data-name="Path 532" class="cls-2" d="M785.47,668.11s17.161-30.4,43-39.156a52.894,52.894,0,0,0,26.789-20.037,88.7,88.7,0,0,0,7.9-14.216" transform="translate(-316.423 -210.061)"/>
    <path id="Path_533" data-name="Path 533" class="cls-3" d="M914.991,580.616c-2.945,2.862-16.661,5.814-16.661,5.814s3.362-13.621,6.307-16.476a7.431,7.431,0,0,1,10.354,10.662Z" transform="translate(-351.997 -201.599)"/>
    <path id="Path_534" data-name="Path 534" class="cls-3" d="M903.45,615.7c-4.027.8-17.12-4.17-17.12-4.17s10.231-9.587,14.25-10.409a7.432,7.432,0,1,1,2.9,14.579Z" transform="translate(-348.215 -212.04)"/>
    <path id="Path_535" data-name="Path 535" class="cls-3" d="M864.236,654.8c-3.883-1.37-12.7-12.258-12.7-12.258s13.7-3.123,17.558-1.781a7.43,7.43,0,1,1-4.862,14.038Z" transform="translate(-337.249 -224.476)"/>
    <path id="Path_536" data-name="Path 536" class="cls-3" d="M825.519,677.085c-4.047-.685-14.579-9.936-14.579-9.936s12.949-5.4,17-4.725a7.43,7.43,0,1,1-2.417,14.662Z" transform="translate(-324.451 -231.39)"/>
    <path id="Path_537" data-name="Path 537" class="cls-3" d="M869.59,597.433c0,4.109,7.423,16,7.423,16s7.437-11.895,7.437-16a7.43,7.43,0,0,0-14.86,0Z" transform="translate(-342.938 -208.583)"/>
    <path id="Path_538" data-name="Path 538" class="cls-3" d="M825.5,623.206c1.233,3.917,11.874,13.052,11.874,13.052s3.533-13.58,2.308-17.5a7.431,7.431,0,0,0-14.182,4.444Z" transform="translate(-328.933 -216.003)"/>
    <path id="Path_539" data-name="Path 539" class="cls-3" d="M786.509,655.674c.548,4.068,9.5,14.874,9.5,14.874s5.78-12.785,5.232-16.853a7.431,7.431,0,1,0-14.73,1.979Z" transform="translate(-316.729 -226.626)"/>
    <path id="Path_540" data-name="Path 540" class="cls-4" d="M914.991,580.616c-2.945,2.862-16.661,5.814-16.661,5.814s3.362-13.621,6.307-16.476a7.431,7.431,0,0,1,10.354,10.662Z" transform="translate(-351.997 -201.599)"/>
    <path id="Path_541" data-name="Path 541" class="cls-4" d="M903.45,615.7c-4.027.8-17.12-4.17-17.12-4.17s10.231-9.587,14.25-10.409a7.432,7.432,0,1,1,2.9,14.579Z" transform="translate(-348.215 -212.04)"/>
    <path id="Path_542" data-name="Path 542" class="cls-4" d="M864.236,654.8c-3.883-1.37-12.7-12.258-12.7-12.258s13.7-3.123,17.558-1.781a7.43,7.43,0,1,1-4.862,14.038Z" transform="translate(-337.249 -224.476)"/>
    <path id="Path_543" data-name="Path 543" class="cls-4" d="M825.519,677.085c-4.047-.685-14.579-9.936-14.579-9.936s12.949-5.4,17-4.725a7.43,7.43,0,1,1-2.417,14.662Z" transform="translate(-324.451 -231.39)"/>
    <path id="Path_544" data-name="Path 544" class="cls-4" d="M869.59,597.433c0,4.109,7.423,16,7.423,16s7.437-11.895,7.437-16a7.43,7.43,0,0,0-14.86,0Z" transform="translate(-342.938 -208.583)"/>
    <path id="Path_545" data-name="Path 545" class="cls-4" d="M825.5,623.206c1.233,3.917,11.874,13.052,11.874,13.052s3.533-13.58,2.308-17.5a7.431,7.431,0,0,0-14.182,4.444Z" transform="translate(-328.933 -216.003)"/>
    <path id="Path_546" data-name="Path 546" class="cls-4" d="M786.509,655.674c.548,4.068,9.5,14.874,9.5,14.874s5.78-12.785,5.232-16.853a7.431,7.431,0,1,0-14.73,1.979Z" transform="translate(-316.729 -226.626)"/>
    <path id="Path_547" data-name="Path 547" class="cls-2" d="M786.91,655.61s3.369-34.746,23.447-53.222a52.894,52.894,0,0,0,16.366-29.179A88.424,88.424,0,0,0,828.189,557" transform="translate(-316.877 -198.178)"/>
    <path id="Path_548" data-name="Path 548" class="cls-3" d="M858.985,535.141c-1.534,3.807-12.874,12.066-12.874,12.066s-2.438-13.819-.9-17.62a7.43,7.43,0,1,1,13.778,5.554Z" transform="translate(-335.093 -188.015)"/>
    <path id="Path_549" data-name="Path 549" class="cls-3" d="M861.8,571.192c-3.355,2.363-17.366,3.129-17.366,3.129s5.478-12.922,8.813-15.284a7.431,7.431,0,1,1,8.553,12.155Z" transform="translate(-335.007 -198.393)"/>
    <path id="Path_550" data-name="Path 550" class="cls-3" d="M840.232,622.9c-4.109.342-16.572-6.067-16.572-6.067s11.237-8.4,15.3-8.745A7.432,7.432,0,1,1,840.2,622.9Z" transform="translate(-328.461 -214.273)"/>
    <path id="Path_551" data-name="Path 551" class="cls-3" d="M814.363,658.847c-3.972,1.027-17.353-3.177-17.353-3.177s9.649-10.183,13.62-11.21a7.429,7.429,0,1,1,3.733,14.382Z" transform="translate(-320.06 -225.67)"/>
    <path id="Path_552" data-name="Path 552" class="cls-3" d="M822.576,569.742c1.657,3.753,13.271,11.641,13.271,11.641s1.979-13.888.315-17.64a7.429,7.429,0,1,0-13.587,6.013Z" transform="translate(-327.918 -198.908)"/>
    <path id="Path_553" data-name="Path 553" class="cls-3" d="M792.719,611.173c2.705,3.082,16.141,7.122,16.141,7.122s-2.267-13.847-4.978-16.928a7.429,7.429,0,1,0-11.163,9.807Z" transform="translate(-318.125 -211.366)"/>
    <path id="Path_554" data-name="Path 554" class="cls-3" d="M770.22,656.659c2.15,3.5,14.709,9.745,14.709,9.745s.1-14.024-2.054-17.524a7.43,7.43,0,1,0-12.662,7.779Z" transform="translate(-311.267 -226.023)"/>
    <ellipse id="Ellipse_2" data-name="Ellipse 2" class="cls-1" cx="81.408" cy="13.648" rx="81.408" ry="13.648" transform="translate(174.82 543.805)"/>
    <ellipse id="Ellipse_3" data-name="Ellipse 3" class="cls-1" cx="81.408" cy="13.648" rx="81.408" ry="13.648" transform="translate(335.054 439.039)"/>
    <path id="Path_555" data-name="Path 555" class="cls-5" d="M610.3,397.841l-.075,2.664L605.6,563.841H597.82L601.634,400.5l.075-3.075Z" transform="translate(-188.438 -125.275)"/>
    <path id="Path_556" data-name="Path 556" class="cls-6" d="M637.158,596.509l-5.827-.014-86.585-.185-4.615-.007,2.458-7.574h93.953Z" transform="translate(-170.254 -185.574)"/>
    <path id="Path_557" data-name="Path 557" class="cls-7" d="M612.06,397.841l-.075,2.664H603.39l.075-3.075Z" transform="translate(-190.194 -125.275)"/>
    <rect id="Rectangle_11" data-name="Rectangle 11" class="cls-5" width="14.429" height="5.43" transform="translate(410.717 268.574)"/>
    <path id="Path_558" data-name="Path 558" class="cls-7" d="M545.512,588.73l-.767,7.581-4.615-.007,2.458-7.574Z" transform="translate(-170.254 -185.574)"/>
    <path id="Path_559" data-name="Path 559" class="cls-8" d="M553.138,392.05l-.24,2.356L533.69,583.846l-8.8-.418,20.242-189.023.226-2.15Z" transform="translate(-165.45 -123.579)"/>
    <path id="Path_560" data-name="Path 560" class="cls-7" d="M678.775,596.509l-5.827-.014-.788-7.766h6Z" transform="translate(-211.871 -185.574)"/>
    <path id="Path_561" data-name="Path 561" class="cls-8" d="M682.268,583.429l-8.806.418-19.2-189.44-.24-2.356,7.772.205.226,2.15Z" transform="translate(-206.153 -123.579)"/>
    <rect id="Rectangle_12" data-name="Rectangle 12" class="cls-9" width="194.042" height="186.058" transform="translate(319.523 81.694)"/>
    <path id="Path_562" data-name="Path 562" class="cls-8" d="M710.845,59.623v44.929h-7.567V59.623a3.787,3.787,0,1,1,7.567,0Z" transform="translate(-290.514 -40.155)"/>
    <rect id="Rectangle_13" data-name="Rectangle 13" class="cls-7" width="7.574" height="4.088" transform="translate(412.758 60.308)"/>
    <path id="Path_563" data-name="Path 563" class="cls-6" d="M712.47,124.712v14.833H699V124.712a1.835,1.835,0,0,1,1.842-1.842h9.8A1.842,1.842,0,0,1,712.47,124.712Z" transform="translate(-289.167 -61.336)"/>
    <circle id="Ellipse_4" data-name="Ellipse 4" class="cls-7" cx="2.862" cy="2.862" r="2.862" transform="translate(413.682 68.088)"/>
    <circle id="Ellipse_5" data-name="Ellipse 5" class="cls-5" cx="2.862" cy="2.862" r="2.862" transform="translate(413.682 67.471)"/>
    <rect id="Rectangle_14" data-name="Rectangle 14" class="cls-7" width="13.511" height="1.842" transform="translate(409.792 76.374)"/>
    <rect id="Rectangle_15" data-name="Rectangle 15" class="cls-7" width="24.563" height="4.095" transform="translate(404.266 78.832)"/>
    <rect id="Rectangle_16" data-name="Rectangle 16" class="cls-6" width="24.563" height="4.095" transform="translate(404.266 77.599)"/>
    <path id="Path_564" data-name="Path 564" class="cls-7" d="M533.671,384H636.835a4.451,4.451,0,0,1,4.451,4.451v.972H529.22v-.972A4.451,4.451,0,0,1,533.671,384Z" transform="translate(-166.815 -121.041)"/>
    <path id="Path_565" data-name="Path 565" class="cls-7" d="M554.676,392.255l7.779-.205-.24,2.356H554.45Z" transform="translate(-174.768 -123.579)"/>
    <rect id="Rectangle_17" data-name="Rectangle 17" class="cls-7" width="14.429" height="2.253" transform="translate(410.717 268.574)"/>
    <path id="Path_566" data-name="Path 566" class="cls-7" d="M662.018,394.406H654.26l-.24-2.356,7.772.205Z" transform="translate(-206.153 -123.579)"/>
    <path id="Path_567" data-name="Path 567" class="cls-6" d="M533.671,385.77H636.835a4.451,4.451,0,0,1,4.451,4.451v.972H529.22v-.972a4.451,4.451,0,0,1,4.451-4.451Z" transform="translate(-166.815 -121.599)"/>
    <path id="Path_568" data-name="Path 568" class="cls-10" d="M534.539,254.431c-1.555-.822-18.489-13.614-18.489-13.614l-27.33-17.332s-.144-.411-.4-1.116c7.5-8.512,5.862-20.866-1.767-29.549-9.245-10.532-51.017-33.206-63.6-13.812-1.76,2.739-1.822,5.848-2.28,8.861a36.8,36.8,0,0,1-9.977,19.585c-4.191,4.431-9.69,8.512-12.1,13.525a.814.814,0,0,0-.068-.192,12.572,12.572,0,0,0-1.253,3.424c-1.2,6.115,2.91,11.977,5.095,17.928a32.534,32.534,0,0,1,1.589,6.218c.055-.425.1-.842.151-1.267a39.761,39.761,0,0,1,.541,9.149c-15.168,3.088-15.175,29.035-15.175,29.035s-1.87,10.313-1.554,14.031.308,11.758.308,13.7-1.87,14.025-2.054,15.476a.358.358,0,0,1,0,.062c-.274,1.589-3.116,9.245,3.753,10.957.479.123.986.226,1.513.322.294,6.2.829,19.174.356,22.064,0,0,2.5,17.435,4.574,21.865a50.288,50.288,0,0,0,4.588,7.409,8.163,8.163,0,0,1-1.054,3.006c-1.062,1.527-.514,2.78,1.26,3.321-.062.527-.13,1.123-.205,1.794-.76,6.725-1.9,20.092.034,26.864,2.65,9.286,2.808,12.381,2.808,12.381a9.029,9.029,0,0,0,1.1,4.328c1.1,1.548,3.116,15.942,3.116,18.263s5.3,23.208,3.739,28.159-.308,11.915-.308,11.915-.938,12.224-2.054,14.853-1.561,45.025.151,56.009,2.808,20.112,2.808,20.112-1.089,10.06-.158,11.45,2.65,9.751,1.4,10.21-1.87,3.869-1.87,3.869a34.5,34.5,0,0,0,2.13,2.9,11.644,11.644,0,0,1-1.4-.6c.493.685,1.233,1.657,2.143,2.739l-.856,11.128a1.863,1.863,0,0,0,1.37,1.952,15.661,15.661,0,0,0,15.49-4.355c7.793-7.889,10.443-6.807,11.847-11.6.151-.514.281-1.02.39-1.5a5.054,5.054,0,0,0-7.17-5.629c.5-3.383.89-7.225.513-9.4-.781-4.485-.623-16.243-.623-16.243l-1.089-56.324s2.02-11.142,4.362-15.469,2.054-19.5,2.054-19.5l2.65-49.825,2.493-24.29s2.493-8.354,5.608.931c0,0-1.712,18.715-.931,23.208s1.869,26.3,1.089,31.1-4.2,31.1-2.054,37.753,4.547,14.709,4.068,17.346-2.054,59.721-2.054,59.721,4.211,10.957,1.1,14.545-.158,17.8-.158,17.8.377.267,1.02.637l-.089,1.185-.979,12.8a1.876,1.876,0,0,0,1.37,1.958,15.654,15.654,0,0,0,15.49-4.355c7.793-7.9,10.443-6.807,11.847-11.607.151-.514.281-1.013.4-1.5a5.065,5.065,0,0,0-8.163-5l-.185.158a6.455,6.455,0,0,1-.609.459,2.96,2.96,0,0,1-.308.2c.781-3.534,1.917-9.587,1.37-12.422-.781-4.177.774-16.859.774-16.859s4.52-15.168,4.677-21.229l1.246-48.271s-.151-19.654.473-24.447,5.608-46.265,10.594-58.646c3.828-9.478,5.54-33.664,4.526-45.929-.055-.6-.11-1.185-.178-1.726,6.115-4.513,6.725-12.018,6.725-12.018s-5.615-10.724-11.018-15.264-6.567-12.347-6.375-15.668a8.136,8.136,0,0,0-1.87-5.567s-2.493-8.046-4.157-8.868a1.3,1.3,0,0,1-.363-.274c-1.13-1.212-.26-4.677-.26-4.677v-.11c.2-.8,1.37-5.992,1.02-7.32-.418-1.438.206-8.252.206-8.252s3.951-11.758,3.328-21.044,8.108-8.457,8.108-8.457l26.96-.281h3.068a21.6,21.6,0,0,0,2.951-3.054c5.136-.609,15.524-2.547,16.688-8.217C542.544,262.895,536.1,255.259,534.539,254.431ZM409.633,340.276l.185-4.718c.637.548,1.061.9,1.061.9a7.382,7.382,0,0,1,.048,3.78,4.033,4.033,0,0,1-2.335,2.616,2.827,2.827,0,0,0-.377.2l-.26-2.664Zm97.788-82.86c-1.144-.514-4.992-.411-6.971-.411s-5.191-1.65-5.191-1.65c-.685-1.335-4.472-2.13-7.841-2.582-2.561-6.314-6.163-12.47-6.649-19.051a5.047,5.047,0,0,0-.034-.719l.39.685s15.7,10.012,17.462,13.011c1.37,2.287,7.964,7.4,11.018,9.683a3.143,3.143,0,0,1-1.678,1.123.924.924,0,0,1-.507-.089Z" transform="translate(-190.302 -76.64)"/>
    <path id="Path_569" data-name="Path 569" class="cls-11" d="M512.568,828.416c-.116.479-.24.979-.39,1.486-1.37,4.794-3.992,3.684-11.641,11.511a15.326,15.326,0,0,1-15.25,4.328,1.849,1.849,0,0,1-1.37-1.945l.965-12.7.459-6.108s12.217,3.424,18.435-.924a7.434,7.434,0,0,0,.6-.459,1.918,1.918,0,0,0,.137-.137,4.992,4.992,0,0,1,8.053,4.944Z" transform="translate(-221.368 -281.811)"/>
    <path id="Path_570" data-name="Path 570" class="cls-11" d="M456.569,821.416c-.117.479-.24.979-.39,1.486-1.37,4.793-3.992,3.684-11.641,11.511a15.325,15.325,0,0,1-15.25,4.328,1.849,1.849,0,0,1-1.37-1.945l.966-12.7.459-6.108s12.217,3.424,18.435-.925a7.338,7.338,0,0,0,.6-.459,1.93,1.93,0,0,0,.137-.137,4.992,4.992,0,0,1,8.053,4.944Z" transform="translate(-203.716 -279.604)"/>
    <path id="Path_571" data-name="Path 571" class="cls-7" d="M443.362,826.886l.493,6.6c-7.012,7.005-15.36-3.424-17.8-6.848C432.48,829.954,443.362,826.886,443.362,826.886Z" transform="translate(-203.13 -283.171)"/>
    <path id="Path_572" data-name="Path 572" class="cls-7" d="M503.252,829.013l.918-.609c-6.4,9.738-15.914,5.245-18.88,3.5l.459-6.108s12.217,3.424,18.435-.924C503.7,827.253,503.252,829.013,503.252,829.013Z" transform="translate(-221.803 -282.613)"/>
    <path id="Path_573" data-name="Path 573" class="cls-12" d="M498.42,537.232c-4.917,12.279-9.827,53.414-10.443,58.207s-.459,24.255-.459,24.255l-1.233,47.86c-.158,5.992-4.609,21.037-4.609,21.037s-1.534,12.586-.767,16.729-1.993,15.065-1.993,15.065l.918-.616c-7.677,11.641-19.8,2.917-19.8,2.917s-2.917-14.12.157-17.654-1.075-14.429-1.075-14.429,1.534-56.646,1.993-59.255-1.842-10.594-3.992-17.2,1.233-32.7,2-37.458-.308-26.406-1.075-30.857.918-23.03.918-23.03c-3.068-9.21-5.526-.918-5.526-.918l-2.458,24.1-2.609,49.435s.308,15.065-1.993,19.345-4.3,15.346-4.3,15.346L443.143,686s-.151,11.641.616,16.113-1.691,15.969-1.691,15.969c-8.594,20.249-22.4-1.705-22.4-1.705s.616-3.376,1.842-3.835-.459-8.752-1.37-10.135.151-11.361.151-11.361-1.075-9.053-2.739-19.955-1.226-52.962-.151-55.571,1.993-14.737,1.993-14.737-1.226-6.91.308-11.826-3.684-25.632-3.684-27.939-1.993-16.579-3.068-18.113a9.057,9.057,0,0,1-1.075-4.3s-.151-3.068-2.739-12.278c-1.9-6.724-.781-19.982-.034-26.659.267-2.472.5-4.047.5-4.047s88.044-14.278,91.557-11.052c.822.76,1.37,3.369,1.691,7.088C503.9,503.821,502.172,527.857,498.42,537.232Z" transform="translate(-197.468 -175.198)"/>
    <path id="Path_574" data-name="Path 574" class="cls-7" d="M491.34,662.377c.411,0,10.135.822,13.7.1S491.34,662.377,491.34,662.377Z" transform="translate(-223.71 -231.316)"/>
    <path id="Path_575" data-name="Path 575" class="cls-7" d="M492.39,670.859s13.429,2.356,14.114,1.13S492.39,670.859,492.39,670.859Z" transform="translate(-224.041 -234.067)"/>
    <path id="Path_576" data-name="Path 576" class="cls-7" d="M432.46,667.27s6.957.308,10.744,2.055S432.46,667.27,432.46,667.27Z" transform="translate(-205.151 -232.936)"/>
    <path id="Path_577" data-name="Path 577" class="cls-13" d="M395.54,415.805s1.123,21.386.514,25.173c0,0,2.452,17.3,4.5,21.694A62.7,62.7,0,0,0,407,472.6l6.04-42.457L411.605,415.6Z" transform="translate(-193.513 -153.607)"/>
    <circle id="Ellipse_6" data-name="Ellipse 6" class="cls-13" cx="23.639" cy="23.639" r="23.639" transform="translate(241.841 117.488)"/>
    <path id="Path_578" data-name="Path 578" class="cls-13" d="M463.155,254.852s-7.368,14.435-14.737,21.187,44.21,14.429,45.436,14.429-9.21-30.7-7.368-34.4S463.155,254.852,463.155,254.852Z" transform="translate(-209.954 -102.679)"/>
    <path id="Path_579" data-name="Path 579" class="cls-7" d="M503.284,491.659a15.364,15.364,0,0,1-3.794,2.123c-9.409,3.684-19.647,8.8-26.6,6.759s-21.694,0-21.694,0-29.686-2.458-35.609-1.027a11.606,11.606,0,0,1-6.163.157c.267-2.472.5-4.047.5-4.047s88.146-14.278,91.659-11.053C502.415,485.332,502.949,487.941,503.284,491.659Z" transform="translate(-197.888 -175.198)"/>
    <path id="Path_580" data-name="Path 580" class="cls-14" d="M504.552,413.6s-.815,10.238-10.238,13.922-19.647,8.8-26.6,6.759-21.694,0-21.694,0-29.686-2.458-35.609-1.027-9.012-.4-7.17-3.068,1.643-11.463,1.643-15.148-2.054-18.626-.212-21.29,3.479-12.895,7.163-14.538a4.013,4.013,0,0,0,2.3-2.6,7.423,7.423,0,0,0-.048-3.746s-.623-.514-1.479-1.274c-2.171-1.938-5.841-5.533-4.663-6.711,1.637-1.643,0-12.285,0-12.285s-3.89-8.183-2.451-11.251S393,322.108,393,322.108s0-27.83,16.784-29.063c0,0,11.874.411,13.305-4.91s10.847-8.4,10.847-8.4l21.5,4.711s19.03,4.109,22.516,1.637,6.163,3.273,6.163,3.273,11.867.616,13.093,3.075-3.883,26.4-3.883,26.4-8.6-.815-7.985,8.4-3.314,20.879-3.314,20.879-.616,6.752-.206,8.183c.384,1.322-.808,6.471-1,7.266v.1s-.856,3.424.253,4.643a1.371,1.371,0,0,0,.356.274c1.643.815,4.109,8.8,4.109,8.8a8.1,8.1,0,0,1,1.842,5.526c-.2,3.28,1.027,11.052,6.348,15.558S504.552,413.6,504.552,413.6Z" transform="translate(-192.712 -110.783)"/>
    <path id="Path_581" data-name="Path 581" class="cls-15" d="M411.382,384.953v.87l-.37,9.587s-12.593,1.02-19.448-.685-3.972-9.313-3.7-10.888a.254.254,0,0,0,0-.062c.2-1.438,2.054-13.408,2.054-15.353s0-9.93-.308-13.614,1.507-13.949,1.507-13.949l1.328-1.63,14.422,5.526Z" transform="translate(-190.832 -129.535)"/>
    <path id="Path_582" data-name="Path 582" class="cls-7" d="M411.332,406.386l-.37,9.587s-12.593,1.02-19.448-.685-3.972-9.313-3.7-10.888Z" transform="translate(-190.816 -150.077)"/>
    <path id="Path_583" data-name="Path 583" class="cls-7" d="M423.157,415.206a7.424,7.424,0,0,0-.048-3.746s-.623-.514-1.479-1.274c10.84-1.513,53.77-7.4,68.226-8.046v.1s-.856,3.424.253,4.643Z" transform="translate(-201.737 -149.364)"/>
    <path id="Path_584" data-name="Path 584" class="cls-7" d="M520.276,432s2.664,15.065-7.266,20.366C513,452.393,518.639,444.922,520.276,432Z" transform="translate(-230.541 -158.776)"/>
    <path id="Path_585" data-name="Path 585" class="cls-7" d="M428.72,461.389s23.968-4.109,28.659-.918S428.72,461.389,428.72,461.389Z" transform="translate(-203.972 -167.368)"/>
    <path id="Path_586" data-name="Path 586" class="cls-7" d="M510.622,326.22s-3.684,15.148-.925,18.626S510.622,326.22,510.622,326.22Z" transform="translate(-229.174 -125.434)"/>
    <path id="Path_587" data-name="Path 587" class="cls-7" d="M410.134,308.14s3.376,5.629,1.329,11.463S410.134,308.14,410.134,308.14Z" transform="translate(-198.075 -119.735)"/>
    <path id="Path_588" data-name="Path 588" class="cls-7" d="M400,380.18s4.3,2.554,2.869,6.547S400,380.18,400,380.18Z" transform="translate(-194.919 -142.442)"/>
    <path id="Path_589" data-name="Path 589" class="cls-7" d="M399.43,363.14s3.985,2.15,4.5,5.321S399.43,363.14,399.43,363.14Z" transform="translate(-194.739 -137.071)"/>
    <path id="Path_590" data-name="Path 590" class="cls-7" d="M485.81,540.326s25.077,2.561,30.09-3.376C515.9,536.984,493.281,541.456,485.81,540.326Z" transform="translate(-221.967 -191.858)"/>
    <path id="Path_591" data-name="Path 591" class="cls-7" d="M422.59,539.79s26.919,6.348,32.24,1.328C454.83,541.118,431.7,542.858,422.59,539.79Z" transform="translate(-202.039 -192.753)"/>
    <path id="Path_592" data-name="Path 592" class="cls-7" d="M488.65,554s11.258,0,16.476.308S488.65,554,488.65,554Z" transform="translate(-222.862 -197.232)"/>
    <path id="Path_593" data-name="Path 593" class="cls-7" d="M425.28,561s5.526,6.245,11.772,5.122S425.28,561,425.28,561Z" transform="translate(-202.887 -199.439)"/>
    <path id="Path_594" data-name="Path 594" class="cls-16" d="M429.531,184.187c-1.733,2.691-1.794,5.807-2.246,8.793a36.641,36.641,0,0,1-9.82,19.434c-4.91,5.218-11.642,9.95-12.915,16.325-1.205,6.054,2.883,11.881,5.026,17.8,5.65,15.538-2.239,31.836-4.54,47.874-.637,4.431.13,10.094,5.588,11.566,1.705.466,3.657.4,5.191,1.144,2.054.986,2.684,3.034,3.061,4.876a74.515,74.515,0,0,1,1.411,20.051c-.247,3.766-.52,8.1,3.04,10.69a17.981,17.981,0,0,0,5.9,2.356c5.608,1.513,12.86,2.739,16.64-.815,1.589-1.486,2.184-3.581,4.164-4.759,2.965-1.76,7.17-.568,10.9-.384a19.8,19.8,0,0,0,17.722-9.525c3.02-5.417,2.739-11.641,1.643-17.483s-3.054-11.641-3.191-17.572a10.2,10.2,0,0,1,1.315-5.965c2.28-3.527,7.588-5.129,11.217-7.9,6.8-5.2,6.779-13.73,4.307-20.866s-6.91-13.977-7.457-21.352a8.128,8.128,0,0,1,1.007-5.156c.972-1.5,2.671-2.623,4.109-3.862,9.923-8.382,8.752-22.146.548-31.569C483.068,187.446,441.926,164.951,429.531,184.187Z" transform="translate(-196.284 -78.292)"/>
    <g id="Group_23" data-name="Group 23" class="cls-17" transform="translate(207.739 130.095)">
      <path id="Path_595" data-name="Path 595" d="M410.694,275.537c.774-6.225.63-12.395-1.568-18.455-1.082-2.972-2.65-5.923-3.794-8.9A12.846,12.846,0,0,0,404.1,251.6c-1.205,6.054,2.883,11.881,5.026,17.8A32.376,32.376,0,0,1,410.694,275.537Z" transform="translate(-403.882 -230.93)"/>
      <path id="Path_596" data-name="Path 596" d="M420.064,372.231a74.793,74.793,0,0,0-1.4-20.051c-.383-1.842-1.014-3.883-3.068-4.869-1.534-.74-3.486-.685-5.191-1.144a7.074,7.074,0,0,1-4.794-3.958c-.315,1.561-.589,3.116-.815,4.677-.637,4.431.13,10.094,5.588,11.566,1.705.459,3.657.4,5.191,1.137,2.054.986,2.684,3.034,3.068,4.876a75.893,75.893,0,0,1,1.315,9.258C420,373.217,420.03,372.724,420.064,372.231Z" transform="translate(-404.11 -260.569)"/>
      <path id="Path_597" data-name="Path 597" d="M485.492,380.4a19.775,19.775,0,0,1-17.729,9.525c-3.732-.192-7.937-1.37-10.895.383-1.979,1.171-2.582,3.273-4.17,4.759-3.78,3.527-11.032,2.328-16.64.815a18.194,18.194,0,0,1-5.9-2.356,7.4,7.4,0,0,1-2.91-4.725c.041,2.1,0,4.211-.13,6.314-.246,3.766-.52,8.1,3.04,10.7a18.184,18.184,0,0,0,5.9,2.349c5.608,1.513,12.86,2.739,16.64-.815,1.589-1.486,2.191-3.581,4.17-4.794,2.958-1.76,7.163-.568,10.895-.383a19.817,19.817,0,0,0,17.729-9.525c2.9-5.232,2.773-11.148,1.76-16.8a18.4,18.4,0,0,1-1.76,4.554Z" transform="translate(-411.166 -271.173)"/>
      <path id="Path_598" data-name="Path 598" d="M528.971,232.091c-1.465,1.233-3.164,2.363-4.109,3.862a8.128,8.128,0,0,0-1.006,5.156,27.435,27.435,0,0,0,1.411,6.574A27.348,27.348,0,0,1,529,244.369c6.711-5.663,8.341-13.792,6.163-21.379a19.543,19.543,0,0,1-6.191,9.1Z" transform="translate(-441.675 -222.99)"/>
      <path id="Path_599" data-name="Path 599" d="M522.679,307.97c-3.622,2.773-8.937,4.383-11.21,7.909a10.17,10.17,0,0,0-1.322,5.958,41.12,41.12,0,0,0,.877,7.122,6.59,6.59,0,0,1,.445-.8c2.273-3.527,7.588-5.129,11.21-7.9,6.211-4.753,6.731-12.271,4.9-18.976A14.217,14.217,0,0,1,522.679,307.97Z" transform="translate(-437.375 -247.668)"/>
    </g>
    <path id="Path_600" data-name="Path 600" class="cls-13" d="M560.489,295.063s17.709-.918,19.243-8.389-4.794-15.065-6.341-15.867S555.147,257.3,555.147,257.3l-26.912-17.188s-12.895-36.979-15.75-22.824,8.293,32.952,8.293,32.952,15.449,9.93,17.188,12.895,12.388,10.744,12.388,10.744Z" transform="translate(-230.228 -90.078)"/>
    <path id="Path_601" data-name="Path 601" class="cls-15" d="M577.252,309.481c-4.191,10.648-9.621,14.846-9.621,14.846h-3.02l-26.549.274L535,316.24l4.3-18.12,2.657.11s3.177,1.637,5.115,1.637,5.738-.1,6.848.4a.842.842,0,0,0,.5.075c1.007-.1,2.054-1.609,2.054-1.609S581.449,298.839,577.252,309.481Z" transform="translate(-237.472 -116.576)"/>
    <path id="Path_602" data-name="Path 602" class="cls-7" d="M586.175,309.752c-4.191,10.648-9.621,14.846-9.621,14.846h-3.02c1.575-4.218,4.9-12.874,6.163-14.874,1.24-1.89-9.881-6.595-16.387-9.135,1.007-.1,2.054-1.609,2.054-1.609S590.373,299.11,586.175,309.752Z" transform="translate(-246.396 -116.847)"/>
    <ellipse id="Ellipse_7" data-name="Ellipse 7" class="cls-1" cx="30.254" cy="5.917" rx="30.254" ry="5.917" transform="translate(31.939 516.673)"/>
    <ellipse id="Ellipse_8" data-name="Ellipse 8" class="cls-1" cx="22.037" cy="4.307" rx="22.037" ry="4.307" transform="translate(544.477 479.256)"/>
    <ellipse id="Ellipse_9" data-name="Ellipse 9" class="cls-1" cx="22.037" cy="4.307" rx="22.037" ry="4.307" transform="translate(639.998 496.712)"/>
    <ellipse id="Ellipse_10" data-name="Ellipse 10" class="cls-1" cx="22.037" cy="4.307" rx="22.037" ry="4.307" transform="translate(492.09 532.663)"/>
    <path id="Path_603" data-name="Path 603" class="cls-3" d="M226.82,556.31s4.958,6.485-2.287,16.264-13.21,18.037-10.785,24.139c0,0,10.922-18.167,19.818-18.421S236.606,567.239,226.82,556.31Z" transform="translate(-136.037 -197.96)"/>
    <path id="Path_604" data-name="Path 604" class="cls-7" d="M226.947,556.31a8.07,8.07,0,0,1,1.013,2.054c8.676,10.2,13.3,19.708,4.958,19.948-7.766.219-17.086,14.114-19.318,17.62a6.454,6.454,0,0,0,.267.8s10.922-18.167,19.818-18.421S236.732,567.239,226.947,556.31Z" transform="translate(-136.164 -197.96)"/>
    <path id="Path_605" data-name="Path 605" class="cls-18" d="M246.014,567.694c0,2.281-.253,4.109-.568,4.109s-.575-1.849-.575-4.109.322-1.205.637-1.205S246.014,565.386,246.014,567.694Z" transform="translate(-146.02 -201.086)"/>
    <path id="Path_606" data-name="Path 606" class="cls-18" d="M249.362,571.626c-2,1.089-3.746,1.753-3.9,1.472s1.37-1.37,3.349-2.479,1.212-.295,1.37,0S251.361,570.531,249.362,571.626Z" transform="translate(-146.205 -202.293)"/>
    <path id="Path_607" data-name="Path 607" class="cls-3" d="M189.749,556.31s-4.958,6.485,2.287,16.264,13.21,18.037,10.806,24.139c0,0-10.957-18.167-19.859-18.421S179.963,567.239,189.749,556.31Z" transform="translate(-125.132 -197.96)"/>
    <path id="Path_608" data-name="Path 608" class="cls-7" d="M189.747,556.31a8.071,8.071,0,0,0-1.014,2.054c-8.676,10.2-13.3,19.708-4.958,19.948,7.766.219,17.12,14.114,19.318,17.62a7.8,7.8,0,0,1-.26.8s-10.957-18.167-19.859-18.421S179.961,567.239,189.747,556.31Z" transform="translate(-125.13 -197.96)"/>
    <path id="Path_609" data-name="Path 609" class="cls-18" d="M181.43,567.694c0,2.281.253,4.109.568,4.109s.575-1.849.575-4.109-.322-1.205-.637-1.205S181.43,565.386,181.43,567.694Z" transform="translate(-126.024 -201.086)"/>
    <path id="Path_610" data-name="Path 610" class="cls-18" d="M176.248,571.626c2.006,1.089,3.746,1.753,3.9,1.472s-1.37-1.37-3.355-2.479-1.212-.295-1.37,0S174.248,570.531,176.248,571.626Z" transform="translate(-124.005 -202.293)"/>
    <ellipse id="Ellipse_11" data-name="Ellipse 11" class="cls-1" cx="51.804" cy="7.95" rx="51.804" ry="7.95" transform="translate(25.892 432.417)"/>
    <path id="Path_611" data-name="Path 611" class="cls-3" d="M228.385,601.164l-.247,2.054-.349,2.856-.144,1.191-.349,2.862-.151,1.192-.349,2.856-3.958,32.487c-.356,2.9-5.095,5.163-10.82,5.163H191.462c-5.725,0-10.457-2.26-10.813-5.163l-3.965-32.493-.349-2.855-.144-1.192-.356-2.862-.144-1.192-.349-2.856-.247-2.054c-.2-1.644,2.363-3.027,5.6-3.027h42.128C226.023,598.137,228.591,599.52,228.385,601.164Z" transform="translate(-124.023 -211.142)"/>
    <path id="Path_612" data-name="Path 612" class="cls-19" d="M127.715,572.5l-.342,2.863H75.232L74.89,572.5Z" transform="translate(-23.606 -180.458)"/>
    <path id="Path_613" data-name="Path 613" class="cls-19" d="M127.449,578.42l-.342,2.856H75.959l-.349-2.856Z" transform="translate(-23.833 -182.324)"/>
    <path id="Path_614" data-name="Path 614" class="cls-19" d="M127.183,584.33l-.349,2.856H76.679l-.349-2.856Z" transform="translate(-24.06 -184.187)"/>
    <circle id="Ellipse_12" data-name="Ellipse 12" class="cls-1" cx="21.571" cy="21.571" r="21.571" transform="translate(101.685 63.698)"/>
    <circle id="Ellipse_13" data-name="Ellipse 13" class="cls-1" cx="13.353" cy="13.353" r="13.353" transform="translate(64.706 20.556)"/>
    <circle id="Ellipse_14" data-name="Ellipse 14" class="cls-1" cx="8.217" cy="8.217" r="8.217" transform="translate(0 55.481)"/>
  </g>
</svg>
